<svg xmlns="http://www.w3.org/2000/svg"  viewBox="0 0 48 48" width="48px" height="48px"><path fill="#3ddab4" d="M24,16.088C11.427,16.088,1.108,25.716,0,38h48C46.892,25.716,36.573,16.088,24,16.088z"/><rect width="13" height="4.001" x="30.5" y="14.629" fill="#3ddab4" transform="rotate(-60.007 36.999 16.628)"/><rect width="4.001" height="13" x="9" y="10.129" fill="#3ddab4" transform="rotate(-30 11 16.63)"/><path fill="#00b569" d="M37.299,20.111c-1.108-0.736-2.282-1.376-3.509-1.923l-1.773,3.07l3.465,2L37.299,20.111z"/><path fill="#00b569" d="M12.518,23.258l3.465-2l-1.773-3.07c-1.227,0.547-2.401,1.187-3.509,1.923L12.518,23.258z"/><circle cx="13" cy="29" r="2" fill="#7decd6"/><circle cx="35" cy="29" r="2" fill="#7decd6"/></svg>