<svg width="1000" height="1000" viewBox="0 0 1000 1000" fill="none" xmlns="http://www.w3.org/2000/svg">
<rect width="1000" height="1000" fill="white"/>
<g clip-path="url(#clip0_167_49)">
<mask id="mask0_167_49" style="mask-type:luminance" maskUnits="userSpaceOnUse" x="150" y="150" width="700" height="700">
<path d="M850 150H150V850H850V150Z" fill="white"/>
</mask>
<g mask="url(#mask0_167_49)">
<path d="M575.217 841.904C550.988 847.208 525.818 850.006 499.997 850.006C429.122 850.006 363.168 828.94 308.054 792.726C294.373 773.156 288.235 762.385 283.757 754.527C281.539 750.633 279.728 747.456 277.609 744.276C256.731 710.7 245.807 667.571 243.425 616.898C236.047 459.884 331.47 359.618 428.953 343.161C490.744 332.729 539.853 343.294 577.517 363.436C544.217 354.173 504.522 353.616 459.269 366.571C349.568 401.929 312.999 509.445 328.673 628.508C356.028 777.698 502.308 831.171 575.217 841.904Z" fill="url(#paint0_linear_167_49)"/>
<path d="M262.762 757.346C242.357 721.113 223.878 667.049 221.569 617.926C213.736 451.241 315.601 340.114 425.305 321.594C574.843 296.348 657.979 384.876 686.638 450.582C687.838 449.775 688.325 448.176 687.69 446.797C640.569 344.333 543.107 273.969 430.525 273.969C302.693 273.969 188.629 365.669 150 501.952C150.549 602.938 193.866 693.799 262.762 757.346Z" fill="url(#paint1_linear_167_49)"/>
<path d="M696.866 789.417C671.62 806.625 644.005 820.614 614.614 830.796C600.502 828.338 584.866 825.279 573.858 823.124C568.641 822.101 564.46 821.284 561.977 820.83C495.4 808.67 376.36 765.768 350.282 625.095C342.913 568.532 348.19 516.461 366.878 475.161C385.289 434.471 417.062 403.278 465.519 387.53C521.839 372.186 568.509 379.791 603.173 398.409C594.642 396.61 585.821 395.666 576.794 395.666C501.782 395.666 440.975 460.819 440.975 541.188C440.975 573.279 450.669 602.944 467.094 627.004C467.094 627.004 514.109 715.813 642.094 707.875C756.211 700.796 815.473 598.435 822.535 560.627C826.205 540.977 828.125 520.713 828.125 499.997C828.125 318.781 681.218 171.875 500.002 171.875C362.873 171.875 245.393 255.993 196.344 375.443C179.776 397.026 165.511 420.953 154.016 446.827C179.631 278.761 324.779 150 500.002 150C693.301 150 850 306.7 850 499.997C850 620.302 789.305 726.42 696.866 789.417Z" fill="url(#paint2_linear_167_49)"/>
<path d="M696.866 789.417C671.62 806.625 644.005 820.614 614.614 830.796C600.502 828.338 584.866 825.279 573.858 823.124C568.641 822.101 564.46 821.284 561.977 820.83C495.4 808.67 376.36 765.768 350.282 625.095C342.913 568.532 348.19 516.461 366.878 475.161C385.289 434.471 417.062 403.278 465.519 387.53C521.839 372.186 568.509 379.791 603.173 398.409C594.642 396.61 585.821 395.666 576.794 395.666C501.782 395.666 440.975 460.819 440.975 541.188C440.975 573.279 450.669 602.944 467.094 627.004C467.094 627.004 514.109 715.813 642.094 707.875C756.211 700.796 815.473 598.435 822.535 560.627C826.205 540.977 828.125 520.713 828.125 499.997C828.125 318.781 681.218 171.875 500.002 171.875C362.873 171.875 245.393 255.993 196.344 375.443C179.776 397.026 165.511 420.953 154.016 446.827C179.631 278.761 324.779 150 500.002 150C693.301 150 850 306.7 850 499.997C850 620.302 789.305 726.42 696.866 789.417Z" fill="url(#paint3_linear_167_49)"/>
</g>
</g>
<defs>
<linearGradient id="paint0_linear_167_49" x1="368.579" y1="439.973" x2="368.045" y2="751.038" gradientUnits="userSpaceOnUse">
<stop offset="0.0297309" stop-color="#2394EF"/>
<stop offset="1" stop-color="#3861E4"/>
</linearGradient>
<linearGradient id="paint1_linear_167_49" x1="320.926" y1="292.246" x2="303.595" y2="603.398" gradientUnits="userSpaceOnUse">
<stop stop-color="#02E1FF"/>
<stop offset="1" stop-color="#2394EF"/>
</linearGradient>
<linearGradient id="paint2_linear_167_49" x1="465.784" y1="855.45" x2="467.001" y2="399.126" gradientUnits="userSpaceOnUse">
<stop stop-color="#5A10D2"/>
<stop offset="1" stop-color="#3861E4"/>
</linearGradient>
<linearGradient id="paint3_linear_167_49" x1="565.622" y1="842.705" x2="566.584" y2="481.773" gradientUnits="userSpaceOnUse">
<stop stop-color="#5B12A4"/>
<stop offset="1" stop-color="#3861E4"/>
</linearGradient>
<clipPath id="clip0_167_49">
<rect width="700" height="700" fill="white" transform="translate(150 150)"/>
</clipPath>
</defs>
</svg>
