<svg width="128" height="102" viewBox="0 0 128 102" fill="none" xmlns="http://www.w3.org/2000/svg">
<circle r="12.5902" transform="matrix(-1 0 0 1 12.5895 12.5902)" fill="black"/>
<path d="M10.4915 10.7017L33.9932 34.2034" stroke="black" stroke-width="6.59455"/>
<circle cx="115.41" cy="12.5902" r="12.5902" fill="black"/>
<path d="M117.718 10.7017L94.2158 34.2034" stroke="black" stroke-width="6.59455"/>
<path fill-rule="evenodd" clip-rule="evenodd" d="M16.6847 87.9667C9.55889 84.6193 5.41323 77.0087 6.85382 69.2688C12.7108 37.8006 36.2594 14.2689 64.4181 14.2689C92.6454 14.2689 116.24 37.9152 122.025 69.4986C123.445 77.2527 119.266 84.8597 112.116 88.1795C97.6804 94.882 81.5911 98.6233 64.628 98.6233C47.4862 98.6233 31.2368 94.8027 16.6847 87.9667Z" fill="#FFDF6F"/>
<path d="M122.025 69.4986L118.782 70.0926L122.025 69.4986ZM112.116 88.1795L110.727 85.1889L112.116 88.1795ZM10.0954 69.8721C15.7446 39.5202 38.2611 17.5662 64.4181 17.5662V10.9716C34.2577 10.9716 9.67695 36.081 3.61221 68.6654L10.0954 69.8721ZM64.4181 17.5662C90.6385 17.5662 113.202 39.6279 118.782 70.0926L125.268 68.9045C119.278 36.2026 94.6523 10.9716 64.4181 10.9716V17.5662ZM110.727 85.1889C96.718 91.6935 81.1017 95.326 64.628 95.326V101.921C82.0806 101.921 98.6429 98.0704 113.504 91.1701L110.727 85.1889ZM64.628 95.326C47.9809 95.326 32.2092 91.6166 18.0866 84.9823L15.2827 90.9511C30.2643 97.9889 46.9916 101.921 64.628 101.921V95.326ZM118.782 70.0926C119.917 76.2903 116.588 82.4675 110.727 85.1889L113.504 91.1701C121.943 87.2518 126.974 78.2151 125.268 68.9045L118.782 70.0926ZM3.61221 68.6654C1.88242 77.9592 6.87257 87.0003 15.2827 90.9511L18.0866 84.9823C12.2452 82.2382 8.94403 76.0583 10.0954 69.8721L3.61221 68.6654Z" fill="black"/>
<path fill-rule="evenodd" clip-rule="evenodd" d="M28.6995 79.9991C22.9663 77.6966 19.563 71.5955 21.6116 65.7668C27.5865 48.7671 44.4944 36.5116 64.4191 36.5116C84.3437 36.5116 101.252 48.767 107.226 65.7665C109.275 71.5952 105.872 77.6964 100.139 79.9989C89.099 84.4326 77.0438 86.8724 64.4188 86.8724C51.794 86.8724 39.739 84.4327 28.6995 79.9991Z" fill="black"/>
<ellipse cx="78.8981" cy="63.3707" rx="10.4918" ry="8.39347" fill="white"/>
<ellipse cx="48.8629" cy="63.3757" rx="10.4918" ry="8.39347" fill="white"/>
</svg>