<svg xmlns="http://www.w3.org/2000/svg"  viewBox="0 0 48 48" width="48px" height="48px"><path fill="#3dd9eb" d="M30.565,7.063C32.261,5.191,33.21,2.621,33.06,0c-2.346,0-5.066,1.372-6.788,3.394 c-1.348,1.672-2.795,4.293-2.271,6.913C26.422,10.607,29.043,9.085,30.565,7.063z"/><path fill="#3dd9eb" d="M36.318,25h0.002c-0.041-0.329-0.077-0.663-0.088-1.015c0-5.865,4.766-8.51,4.966-8.636 c-2.596-3.993-6.79-4.467-8.362-4.468c-3.643,0-6.863,2.022-8.585,2.022c-1.797,0-4.418-2.121-7.363-2.022 c-3.843,0.075-7.363,2.346-9.334,5.691c-1.397,2.396-1.947,5.217-1.896,8.087C5.66,24.772,5.675,24.887,5.678,25 c0.157,5.311,2.228,10.79,4.671,14.309C12.27,42.055,14.441,45,17.511,45c2.771,0,3.794-1.848,7.413-1.848 c3.37,0,4.418,1.848,7.338,1.848c3.07,0,5.092-2.795,6.913-5.567c2.295-3.218,3.07-6.288,3.169-6.414 C42.25,33.019,37.057,30.907,36.318,25z"/></svg>