<?xml version="1.0" encoding="UTF-8"?>
<!DOCTYPE svg PUBLIC "-//W3C//DTD SVG 1.1//EN" "http://www.w3.org/Graphics/SVG/1.1/DTD/svg11.dtd">
<svg xmlns="http://www.w3.org/2000/svg" version="1.1" width="512px" height="512px" style="shape-rendering:geometricPrecision; text-rendering:geometricPrecision; image-rendering:optimizeQuality; fill-rule:evenodd; clip-rule:evenodd" xmlns:xlink="http://www.w3.org/1999/xlink">
<g><path style="opacity:0.948" fill="#000000" d="M 240.5,19.5 C 332.967,17.312 404.8,54.312 456,130.5C 467.888,150.28 477.055,171.28 483.5,193.5C 475.862,194.497 468.196,194.831 460.5,194.5C 453.464,168.757 441.464,145.757 424.5,125.5C 406.072,135.53 386.739,143.196 366.5,148.5C 370.029,163.676 372.696,179.009 374.5,194.5C 367.167,194.5 359.833,194.5 352.5,194.5C 351.046,181.065 348.38,167.899 344.5,155C 318.796,159.962 292.796,162.795 266.5,163.5C 266.5,173.833 266.5,184.167 266.5,194.5C 259.167,194.5 251.833,194.5 244.5,194.5C 244.5,184.167 244.5,173.833 244.5,163.5C 218.217,162.672 192.217,159.839 166.5,155C 162.62,167.899 159.954,181.065 158.5,194.5C 151.167,194.5 143.833,194.5 136.5,194.5C 138.304,179.009 140.971,163.676 144.5,148.5C 124.261,143.196 104.928,135.53 86.5,125.5C 69.5355,145.757 57.5355,168.757 50.5,194.5C 42.8045,194.831 35.1378,194.497 27.5,193.5C 48.7029,123.133 92.3695,71.9661 158.5,40C 184.832,28.6396 212.165,21.8063 240.5,19.5 Z M 242.5,42.5 C 243.833,58.8197 244.5,75.4864 244.5,92.5C 244.333,109.167 244.167,125.833 244,142.5C 220.291,141.439 196.791,138.439 173.5,133.5C 179.566,111.032 189.733,90.3649 204,71.5C 214.182,58.1303 227.015,48.4636 242.5,42.5 Z M 266.5,42.5 C 283.031,47.8565 296.531,57.5231 307,71.5C 320.784,90.2326 331.284,110.733 338.5,133C 328.019,135.858 317.353,137.858 306.5,139C 293.302,140.473 280.135,141.639 267,142.5C 266.5,109.168 266.333,75.835 266.5,42.5 Z M 191.5,51.5 C 173.334,74.4891 159.834,100.156 151,128.5C 133.439,123.425 116.606,116.592 100.5,108C 125.728,81.0472 156.061,62.2139 191.5,51.5 Z M 319.5,51.5 C 354.939,62.2139 385.272,81.0472 410.5,108C 394.394,116.592 377.561,123.425 360,128.5C 351.166,100.156 337.666,74.4891 319.5,51.5 Z"/></g>
<g><path style="opacity:0.949" fill="#000000" d="M 29.5,215.5 C 37.3428,214.18 45.3428,214.18 53.5,215.5C 58.8208,233.116 63.9875,250.782 69,268.5C 75.7273,250.985 82.0606,233.319 88,215.5C 97.4166,214.515 106.917,214.182 116.5,214.5C 122.025,232.574 127.858,250.574 134,268.5C 139.786,250.974 145.286,233.307 150.5,215.5C 158.138,214.503 165.804,214.169 173.5,214.5C 165.309,241.24 156.809,267.907 148,294.5C 143.923,295.798 139.589,296.464 135,296.5C 130.833,296.167 126.667,295.833 122.5,295.5C 115.765,276.129 108.932,256.796 102,237.5C 94.8031,256.757 87.8031,276.09 81,295.5C 72.5592,296.815 64.0592,296.815 55.5,295.5C 46.9979,268.663 38.3313,241.996 29.5,215.5 Z"/></g>
<g><path style="opacity:0.95" fill="#000000" d="M 183.5,214.5 C 191.5,214.5 199.5,214.5 207.5,214.5C 212.356,232.57 217.522,250.57 223,268.5C 229.333,250.833 235.667,233.167 242,215.5C 251.333,214.167 260.667,214.167 270,215.5C 276,233.5 282,251.5 288,269.5C 293.333,251.5 298.667,233.5 304,215.5C 311.775,214.186 319.608,214.186 327.5,215.5C 318.425,242.39 309.759,269.39 301.5,296.5C 293.14,296.831 284.807,296.498 276.5,295.5C 269.694,276.414 262.694,257.414 255.5,238.5C 248.177,257.3 241.344,276.3 235,295.5C 226.579,296.649 218.079,296.816 209.5,296C 200.534,268.935 191.867,241.769 183.5,214.5 Z"/></g>
<g><path style="opacity:0.949" fill="#000000" d="M 336.5,215.5 C 344.343,214.18 352.343,214.18 360.5,215.5C 365.639,232.914 370.972,250.247 376.5,267.5C 382.83,250.176 389.164,232.843 395.5,215.5C 404.833,214.167 414.167,214.167 423.5,215.5C 429.381,233.313 435.548,250.979 442,268.5C 447.478,250.57 452.644,232.57 457.5,214.5C 465.507,214.334 473.507,214.5 481.5,215C 472.475,241.743 463.641,268.577 455,295.5C 446.667,296.833 438.333,296.833 430,295.5C 423,276.167 416,256.833 409,237.5C 401.86,257.089 395.026,276.756 388.5,296.5C 379.808,296.831 371.141,296.498 362.5,295.5C 353.998,268.663 345.331,241.996 336.5,215.5 Z"/></g>
<g><path style="opacity:0.947" fill="#000000" d="M 27.5,316.5 C 35.1667,316.5 42.8333,316.5 50.5,316.5C 57.5355,342.243 69.5355,365.243 86.5,385.5C 104.928,375.47 124.261,367.804 144.5,362.5C 140.971,347.324 138.304,331.991 136.5,316.5C 143.833,316.5 151.167,316.5 158.5,316.5C 159.954,329.935 162.62,343.101 166.5,356C 192.2,351.039 218.2,348.205 244.5,347.5C 244.5,337.167 244.5,326.833 244.5,316.5C 251.833,316.5 259.167,316.5 266.5,316.5C 266.5,326.833 266.5,337.167 266.5,347.5C 292.796,348.205 318.796,351.038 344.5,356C 348.38,343.101 351.046,329.935 352.5,316.5C 359.833,316.5 367.167,316.5 374.5,316.5C 372.477,331.949 369.81,347.283 366.5,362.5C 386.739,367.804 406.072,375.47 424.5,385.5C 441.464,365.243 453.464,342.243 460.5,316.5C 468.196,316.169 475.862,316.503 483.5,317.5C 460.421,394.08 411.754,447.246 337.5,477C 255.646,504.261 179.98,492.594 110.5,442C 69.2055,409.262 41.5388,367.429 27.5,316.5 Z M 243.5,368.5 C 244.83,401.669 244.83,435.002 243.5,468.5C 227.395,462.861 214.228,453.195 204,439.5C 190.362,420.893 179.862,400.559 172.5,378.5C 180.205,375.723 188.205,373.89 196.5,373C 212.278,371.036 227.945,369.536 243.5,368.5 Z M 266.5,368.5 C 282.49,369.484 298.49,370.984 314.5,373C 322.655,374.031 330.655,375.697 338.5,378C 329.462,406.424 314.796,431.424 294.5,453C 286.741,460.216 277.741,465.383 267.5,468.5C 266.5,435.173 266.167,401.84 266.5,368.5 Z M 191.5,459.5 C 156.061,448.786 125.728,429.953 100.5,403C 116.606,394.408 133.439,387.575 151,382.5C 159.834,410.844 173.334,436.511 191.5,459.5 Z M 319.5,459.5 C 337.666,436.511 351.166,410.844 360,382.5C 377.561,387.575 394.394,394.408 410.5,403C 385.272,429.953 354.939,448.786 319.5,459.5 Z"/></g>
</svg>
