<svg width="512" height="512" viewBox="0 0 512 512" fill="none" xmlns="http://www.w3.org/2000/svg">
<path d="M402 159.961C393.674 159.961 385.7 161.47 378.32 164.229C365.1 151.763 348.9 143.966 330 143.966C318.36 143.966 307.56 147.188 297.97 152.381L309.09 83.4532C309.713 79.5805 310.014 75.7307 310.014 71.9269C310.014 35.8585 281.104 0 237.924 0C203.244 0 172.614 25.1519 166.894 60.5206L163.4 82.2056L158.9 72.7586C146.5 47.0169 120.83 31.9917 94.01 31.9917C53.21 31.9917 22 65.2611 22 104.039C22 114.515 24.296 125.142 29.144 135.209L79.05 238.835C54.64 250.332 38 275.624 38 303.015V382.989C38 405.042 48.4 426.295 65.83 439.831L111.78 475.559C141.13 498.382 177.76 510.958 214.98 510.958L293.79 510.993C390.9 511.848 470 431.973 470 335.704V228.239C470 189.551 437.9 159.961 402 159.961Z" fill="white"/>
<path d="M402 159.961C393.674 159.961 385.7 161.47 378.32 164.229C365.1 151.763 348.9 143.966 330 143.966C318.36 143.966 307.56 147.188 297.97 152.381L309.09 83.4532C309.713 79.5805 310.014 75.7307 310.014 71.9269C310.014 35.8585 281.104 0 237.924 0C203.244 0 172.614 25.1519 166.894 60.5206L163.4 82.2056L158.9 72.7586C146.5 47.0169 120.83 31.9917 94.01 31.9917C53.21 31.9917 22 65.2611 22 104.039C22 114.515 24.296 125.142 29.144 135.209L79.05 238.835C54.64 250.332 38 275.624 38 303.015V382.989C38 405.042 48.4 426.295 65.83 439.831L111.78 475.559C141.13 498.382 177.76 510.958 214.98 510.958L293.79 510.993C390.9 511.848 470 431.973 470 335.704V228.239C470 189.551 437.9 159.961 402 159.961ZM310 212.244C310 201.047 318.1 191.95 330 191.95C341.02 191.95 350 201.025 350 212.194V267.676C350 278.823 341 287.92 330 287.92C318.1 287.92 310 278.823 310 267.726V212.244ZM237.9 47.9766C249.95 47.9766 262.03 57.4846 262.03 71.9489C262.03 73.2255 261.928 74.5181 261.717 75.8187L238.4 220.441C230.7 217.542 222.4 215.043 213.9 215.043C209.425 215.043 204.933 215.463 200.52 216.297L189.97 217.923L214.29 67.2714C216.2 56.4139 226.4 47.9766 237.9 47.9766ZM69.1 103.979C69.1 90.7129 79.89 79.9463 93.12 79.9463C102.057 79.9463 110.62 84.9677 114.73 93.552L176.02 220.811L127.3 228.439L72.38 114.375C70.76 111.076 69.1 107.478 69.1 103.979ZM293.8 463.863L214.99 463.828C188.43 463.828 162.27 454.847 141.3 438.536L95.33 402.798C89.47 398.284 86 391.186 86 382.989V303.015C86 291.788 93.969 281.912 103.59 279.802L208.89 263.577C210.6 264.127 212.3 263.028 213.9 263.028C225.81 263.028 237.99 272.546 237.99 287.08C237.99 298.116 230.477 308.023 220.82 310.162L162.8 318.91C150.77 320.542 142.02 330.826 142.02 342.652C142.02 362.856 160.84 366.724 165.72 366.724C168.365 366.724 230.33 358.108 231.26 357.901C254.81 352.676 272.77 335.678 280.99 314.275C293.3 327.407 310.6 335.904 330 335.904C338.326 335.904 346.31 334.395 353.69 331.636C366 344.102 383.1 351.899 402 351.899C402.199 351.899 412.08 351.454 420.65 348.98C413.9 413.379 359.9 463.863 293.8 463.863ZM422 283.721C422 294.817 413 303.914 402 303.914C390.98 303.914 382 294.839 382 283.671V228.189C382 217.042 390.1 207.945 402 207.945C413.02 207.945 422 217.02 422 228.189V283.721Z" fill="#0D0D0D"/>
</svg>
